<svg width="254" height="53" viewBox="0 0 254 53" fill="none" xmlns="http://www.w3.org/2000/svg">
<path d="M92.0605 37.8788C92.0605 29.4799 98.3689 23.7397 106.569 23.7397C114.769 23.7397 121.037 29.4799 121.037 37.8788C121.037 46.2776 114.728 52.0178 106.569 52.0178C98.4095 52.0178 92.0605 46.237 92.0605 37.8788ZM114.379 37.8788C114.379 33.2931 111.375 29.5937 106.569 29.5937C101.763 29.5937 98.718 33.2525 98.718 37.8788C98.718 42.505 101.763 46.1638 106.569 46.1638C111.375 46.1638 114.379 42.505 114.379 37.8788Z" fill="white"/>
<path d="M125.925 24.0889H141.925C148.131 24.0889 151.759 27.1952 151.759 32.9816C151.759 38.7681 148.131 41.9563 141.925 41.9563H132.44V51.6687H125.925V24.0889ZM132.44 29.8425V36.2109H141.307C143.812 36.2109 145.048 34.9651 145.048 33.0226C145.048 30.9654 143.853 29.8343 141.307 29.8343H132.44V29.8425Z" fill="white"/>
<path d="M154.552 24.0889H181.782V29.8343H171.422V51.6687H164.913V29.8343H154.552V24.0889Z" fill="white"/>
<path d="M186.321 24.0889H192.954V51.6687H186.321V24.0889Z" fill="white"/>
<path d="M197.5 37.8788C197.5 29.7482 203.368 23.7397 211.657 23.7397C220.644 23.7397 224.066 29.862 224.723 32.9842H217.993C217.369 31.9028 215.465 29.6344 211.649 29.6344C207.062 29.6344 204.263 33.3744 204.263 37.8788C204.263 42.3831 207.062 46.1231 211.649 46.1231C215.736 46.1231 217.443 43.8141 218.026 42.7734H224.715C224.173 45.5133 220.939 52.0178 211.649 52.0178C203.36 52.0178 197.492 46.0093 197.492 37.8788H197.5Z" fill="white"/>
<path d="M235.331 31.5389C235.331 33.0387 236.639 33.8819 239.028 34.1494C240.531 34.3035 241.652 34.3764 243.341 34.5305C249.581 35.0656 253.699 37.3356 253.699 43.2133C253.699 48.556 249.54 52.0178 241.57 52.0178C232.212 52.0178 228.751 47.3318 227.865 43.4484H234.754C235.331 44.9077 237.338 46.7562 241.57 46.7562C245.186 46.7562 246.924 45.5239 246.924 43.6835C246.924 41.6486 245.389 40.9514 242.96 40.6839C241.343 40.4893 240.189 40.4163 238.605 40.2623C232.602 39.6867 228.629 36.9221 228.629 31.8064C228.629 26.6908 233.365 23.7397 240.1 23.7397C249.069 23.7397 252.229 27.9636 253.041 31.4659H246.461C245.844 30.4282 243.959 28.9689 240.108 28.9689C237.07 28.9689 235.331 29.9256 235.331 31.547V31.5389Z" fill="white"/>
<path d="M92.7588 6.63312C92.7588 2.87216 95.4158 0 99.1065 0C102.991 0 104.639 2.65819 104.978 4.15599H102.531C102.175 3.46469 101.109 2.22201 99.1065 2.22201C96.7322 2.22201 95.2219 4.23006 95.2219 6.63312C95.2219 9.03619 96.7322 11.0442 99.1065 11.0442C101.303 11.0442 102.224 9.74394 102.563 9.09379H104.978C104.679 10.4517 103.153 13.2662 99.1065 13.2662C95.4158 13.2662 92.7588 10.3941 92.7588 6.63312Z" fill="white"/>
<path d="M111.262 6.63312C111.262 2.78163 114.128 0 117.895 0C121.662 0 124.528 2.78163 124.528 6.63312C124.528 10.4846 121.662 13.2662 117.895 13.2662C114.128 13.2662 111.262 10.4846 111.262 6.63312ZM122.076 6.63312C122.076 4.19714 120.42 2.20555 117.887 2.20555C115.354 2.20555 113.714 4.19714 113.714 6.63312C113.714 9.06911 115.354 11.0607 117.887 11.0607C120.42 11.0607 122.076 9.0938 122.076 6.63312Z" fill="white"/>
<path d="M131.51 0.349121H138.783C141.619 0.349121 143.237 1.63898 143.237 4.09776C143.237 5.79876 142.319 6.99993 140.668 7.49975L143.729 12.9171H141.126L138.174 7.74966H133.962V12.9171H131.51V0.349121ZM133.962 2.46126V5.68589H138.574C139.984 5.68589 140.701 5.18607 140.701 4.11388C140.701 2.96107 139.984 2.46932 138.574 2.46932H133.962V2.46126Z" fill="white"/>
<path d="M150.362 0.349121H157.417C160.277 0.349121 161.883 1.71153 161.883 4.1945C161.883 6.67747 160.285 8.10437 157.417 8.10437H152.771V12.9171H150.362V0.349121ZM152.771 2.47738V5.98417H157.286C158.687 5.98417 159.392 5.27475 159.392 4.23481C159.392 3.09812 158.704 2.48544 157.286 2.48544H152.771V2.47738Z" fill="white"/>
<path d="M168.167 6.63312C168.167 2.78163 171.033 0 174.8 0C178.567 0 181.433 2.78163 181.433 6.63312C181.433 10.4846 178.567 13.2662 174.8 13.2662C171.033 13.2662 168.167 10.4846 168.167 6.63312ZM178.989 6.63312C178.989 4.19714 177.333 2.20555 174.8 2.20555C172.267 2.20555 170.627 4.19714 170.627 6.63312C170.627 9.06911 172.267 11.0607 174.8 11.0607C177.333 11.0607 178.989 9.0938 178.989 6.63312Z" fill="white"/>
<path d="M188.415 0.349121H195.48C198.235 0.349121 199.807 1.63898 199.807 4.09776C199.807 5.79876 198.916 6.99993 197.311 7.49975L200.285 12.9171H197.757L194.889 7.74966H190.797V12.9171H188.415V0.349121ZM190.797 2.46126V5.68589H195.278C196.647 5.68589 197.344 5.18607 197.344 4.11388C197.344 2.96107 196.647 2.46932 195.278 2.46932H190.797V2.46126Z" fill="white"/>
<path d="M216.035 10.3409H209.514L208.327 12.9171H205.871L211.688 0.349121H214.003L219.836 12.9171H217.23L216.044 10.3409H216.035ZM215.106 8.29442L212.774 3.23832L210.443 8.29442H215.106Z" fill="white"/>
<path d="M223.676 0.349121H235.895V2.46932H230.961V12.9171H228.618V2.46932H223.684V0.349121H223.676Z" fill="white"/>
<path d="M253.001 10.8131H245.231V7.34658H251.603V5.27475H245.231V2.40483H253.001V0.349121H242.877V12.9171H253.001V10.8131Z" fill="white"/>
<path d="M35.6297 0.203613C15.9518 0.203613 0 16.1554 0 35.8333C0 35.8658 0 35.8901 0 35.9145H13.354C13.354 35.9145 13.354 35.8577 13.354 35.8333C13.354 23.5346 23.3229 13.5576 35.6297 13.5576C47.9365 13.5576 57.9054 23.5265 57.9054 35.8333C57.9054 35.8658 57.9054 35.8901 57.9054 35.9145H71.2594C71.2594 35.9145 71.2594 35.8577 71.2594 35.8333C71.2594 16.1554 55.3076 0.203613 35.6297 0.203613Z" fill="white"/>
<path d="M19.4912 35.9226C19.5399 44.7955 26.7405 51.9718 35.6297 51.9718C44.5189 51.9718 51.7195 44.7955 51.7682 35.9226H19.4993H19.4912Z" fill="white"/>
</svg>
